<svg width="496" height="496" xmlns="http://www.w3.org/2000/svg" xml:space="preserve" version="1.1">

 <g>
  <title>Layer 1</title>
  <g id="svg_1">
   <path id="svg_2" data-original="#e6e9ed" fill="#e6e9ed" d="m200,72l0,-64l176,0l0,64l-72,0l-48,40l0,-40l-56,0zm0,0" xmlns="http://www.w3.org/2000/svg"/>
   <path id="svg_3" data-original="#e6e9ed" fill="#e6e9ed" d="m304,408l0,80l-32,0l-16,-32l-128,0l-16,32l-32,0l0,-112l224,0l0,32zm0,0" xmlns="http://www.w3.org/2000/svg"/>
   <path id="svg_4" data-original="#e6e9ed" fill="#e6e9ed" d="m304,344l0,32l-224,0l0,-32l224,0zm0,0" xmlns="http://www.w3.org/2000/svg"/>
   <path id="svg_5" data-original="#aab2bd" fill="#aab2bd" d="m328,312l0,32l-264,0l0,-32l264,0zm0,0" xmlns="http://www.w3.org/2000/svg"/>
   <path id="svg_6" data-original="#838f9b" fill="#838f9b" d="m256,456l16,32l-160,0l16,-32l128,0zm0,0" xmlns="http://www.w3.org/2000/svg"/>
   <path id="svg_7" data-original="#838f9b" fill="#838f9b" d="m392,408l8,80l-32,0l-8,-80l32,0zm0,0" xmlns="http://www.w3.org/2000/svg"/>
   <path id="svg_8" data-original="#cf9e76" fill="#cf9e76" d="m440,264l0,96c0,26.48047 -21.51953,48 -48,48l-88,0l0,-32l72,0c17.67969,0 32,-14.32031 32,-32l0,-80l32,0zm0,0" xmlns="http://www.w3.org/2000/svg"/>
   <path id="svg_9" data-original="#fcd770" fill="#fcd770" d="m387.03906,252.96094c3.19922,-3.19922 4.96094,-7.51953 4.96094,-12c0,-4.64063 -1.92187,-8.96094 -4.96094,-12c-2.48047,-2.40235 -5.59765,-4.16016 -11.03906,-4.88281l0,-0.07813l11.03906,0c3.28125,0 6.48047,0.71875 9.35938,2.23828c7.12109,3.52344 11.60156,10.80078 11.60156,18.72266l0,99.03906c0,17.67969 -14.32031,32 -32,32l-72,0l0,-32l24,0l0,-32l-3.28125,0c2.08203,0 4.16016,-0.87891 5.60156,-2.32031l56.71875,-56.71875zm0,0" xmlns="http://www.w3.org/2000/svg"/>
   <path id="svg_10" data-original="#69d6f4" fill="#69d6f4" d="m240,312l-144,0l0,-37.92187c0,-10.71875 7.12109,-20.07813 17.44141,-23.03907l38.55859,-11.03906s8,16 24,16s24,-16 24,-16l38.55859,11.03906c10.32032,2.96094 17.44141,12.32032 17.44141,23.03907l0,5.92187l-16,0c-4.39844,0 -8.39844,1.76172 -11.28125,4.71875c-2.95703,2.88281 -4.71875,6.88281 -4.71875,11.28125c0,8.80078 7.19922,16 16,16zm0,0" xmlns="http://www.w3.org/2000/svg"/>
   <g id="svg_11" fill="#f0d0b4" xmlns="http://www.w3.org/2000/svg">
    <path id="svg_12" data-original="#f0d0b4" fill="#f0d0b4" d="m376,224.07813c5.44141,0.72265 8.55859,2.48046 11.03906,4.88281c3.03907,3.03906 4.96094,7.35937 4.96094,12c0,4.48047 -1.76172,8.80078 -4.96094,12l-56.71875,56.71875c-1.4414,1.4414 -3.51953,2.32031 -5.60156,2.32031l-84.71875,0c-8.80078,0 -16,-7.19922 -16,-16c0,-4.39844 1.76172,-8.39844 4.71875,-11.28125c2.88281,-2.95703 6.88281,-4.71875 11.28125,-4.71875l72,0l51.03906,-51.03906c3.19922,-3.19922 7.51953,-4.96094 12,-4.96094c0.32032,0 0.64063,0 0.96094,0.07813zm0,0"/>
    <path id="svg_13" data-original="#f0d0b4" fill="#f0d0b4" d="m408,168l0,16c0,22.07813 -17.92187,40 -40,40s-40,-17.92187 -40,-40l0,-16c0,-22.07812 17.92188,-40 40,-40c11.03906,0 21.03906,4.48047 28.32031,11.67969c7.19922,7.28125 11.67969,17.28125 11.67969,28.32031zm0,0"/>
    <path id="svg_14" data-original="#f0d0b4" fill="#f0d0b4" d="m152,216c6.64063,5.03906 14.96094,8 24,8s17.35938,-2.96094 24,-8l0,24s-8,16 -24,16s-24,-16 -24,-16l0,-24zm0,0"/>
    <path id="svg_15" data-original="#f0d0b4" fill="#f0d0b4" d="m216,168l0,16c0,13.03906 -6.32031,24.71875 -16,32c-6.64062,5.03906 -14.96094,8 -24,8s-17.35937,-2.96094 -24,-8c-9.67969,-7.28125 -16,-18.96094 -16,-32l0,-16c0,-22.07812 17.92188,-40 40,-40c11.03906,0 21.03906,4.48047 28.32031,11.67969c7.19922,7.28125 11.67969,17.28125 11.67969,28.32031zm0,0"/>
   </g>
   <path id="svg_16" data-original="#000000" fill="#000000" d="m248,129.07813l58.89453,-49.07813l77.10547,0l0,-80l-192,0l0,80l56,0l0,49.07813zm-40,-65.07813l0,-48l160,0l0,48l-66.89453,0l-37.10547,30.92188l0,-30.92188l-56,0zm0,0" xmlns="http://www.w3.org/2000/svg"/>
   <path id="svg_17" data-original="#000000" fill="#000000" d="m224,32l16,0l0,16l-16,0l0,-16zm0,0" xmlns="http://www.w3.org/2000/svg"/>
   <path id="svg_18" data-original="#000000" fill="#000000" d="m256,32l64,0l0,16l-64,0l0,-16zm0,0" xmlns="http://www.w3.org/2000/svg"/>
   <path id="svg_19" data-original="#000000" fill="#000000" d="m336,32l16,0l0,16l-16,0l0,-16zm0,0" xmlns="http://www.w3.org/2000/svg"/>
   <path id="svg_20" data-original="#000000" fill="#000000" d="m407.23828,480l-6.46875,-64.76172c26.71094,-4.22265 47.23047,-27.35156 47.23047,-55.23828l0,-104l-32,0l0,-11.05469c0,-10.875 -5.97656,-20.64062 -15.58594,-25.64843c9.55469,-8.77735 15.58594,-21.32813 15.58594,-35.29688l0,-16c0,-26.47266 -21.52734,-48 -48,-48s-48,21.52734 -48,48l0,16c0,20.71094 13.20703,38.34375 31.625,45.0625l-42.9375,42.9375l-44.86328,0c-0.89453,-13.33594 -10.05469,-24.96094 -23.03125,-28.67187l-32.79297,-9.35938l0,-14.28906c9.79297,-8.79297 16,-21.50391 16,-35.67969l0,-16c0,-26.47266 -21.52734,-48 -48,-48s-48,21.52734 -48,48l0,16c0,14.16797 6.20703,26.87891 16,35.67969l0,14.29687l-32.79297,9.35938c-13.66406,3.89453 -23.20703,16.55078 -23.20703,30.76953l0,29.89453l-32,0l0,48l16,0l0,128l-72,0l0,16l496,0l0,-16l-88.76172,0zm-71.23828,-128l0,-36.6875l56.6875,-56.6875c4.09766,-4.09766 6.53516,-9.60156 7.08203,-15.34375c0.07031,0.55859 0.23047,1.08594 0.23047,1.66406l0,99.05469c0,13.23047 -10.76953,24 -24,24l-64,0l0,-16l24,0zm-24,64l40.76172,0l6.39844,64l-47.16016,0l0,-64zm56.83984,0l15.92188,0l6.39844,64l-15.92188,0l-6.39844,-64zm47.16016,-72l0,-72l16,0l0,88c0,22.05469 -17.94531,40 -40,40l-80,0l0,-16l64,0c22.05469,0 40,-17.94531 40,-40zm-80,-160l0,-16c0,-17.64844 14.35156,-32 32,-32s32,14.35156 32,32l0,16c0,17.64844 -14.35156,32 -32,32s-32,-14.35156 -32,-32zm-20.6875,104l53.375,-53.375c1.67188,-1.67187 3.98438,-2.625 6.34375,-2.625c4.94531,0 8.96875,4.02344 8.96875,8.96875c0,2.35938 -0.95312,4.67188 -2.625,6.34375l-56.6875,56.6875l-84.6875,0c-4.41406,0 -8,-3.58594 -8,-8s3.58594,-8 8,-8l75.3125,0zm-171.3125,-120c0,-17.64844 14.35156,-32 32,-32s32,14.35156 32,32l0,16c0,17.64844 -14.35156,32 -32,32s-32,-14.35156 -32,-32l0,-16zm32,64c5.61719,0 10.98438,-1.02344 16,-2.80078l0,8.59375c-1.98437,3.0625 -7.49609,10.20703 -16,10.20703s-14.01562,-7.14453 -16,-10.20703l0,-8.59375c5.01563,1.77734 10.38281,2.80078 16,2.80078zm-72,42.10547c0,-7.11328 4.77734,-13.43359 11.60156,-15.38672l32.95703,-9.41406c4.64063,6.04687 13.67188,14.69531 27.44141,14.69531s22.80078,-8.64844 27.44141,-14.70312l32.95703,9.41406c6.1289,1.7539 10.40234,7.08203 11.25781,13.28125l-7.65625,0c-13.23047,0 -24,10.76953 -24,24c0,2.8164 0.57422,5.48828 1.47266,8l-113.47266,0l0,-29.88672zm-32,45.89453l248,0l0,16l-248,0l0,-16zm16,64l24,0l0,-16l-24,0l0,-16l208,0l0,16l-168,0l0,16l168,0l0,96l-19.05469,0l-16,-32l-137.89062,0l-16,32l-19.05469,0l0,-96zm171.05469,96l-134.10938,0l8,-16l118.10938,0l8,16zm0,0" xmlns="http://www.w3.org/2000/svg"/>
  </g>
 </g>
</svg>