<svg width="60" height="60" xmlns="http://www.w3.org/2000/svg" xml:space="preserve" version="1.1">

 <g>
  <title>Layer 1</title>
  <g id="svg_1">
   <g fill-rule="evenodd" fill="none" id="Page-1" xmlns="http://www.w3.org/2000/svg">
    <g id="015---Financial-Profit">
     <path data-original="#ef314c" fill="#ef314c" d="m59,2.273l-0.5,6.442c-0.03956,0.54261 -0.39204,1.01225 -0.902,1.20182c-0.50995,0.18956 -1.08362,0.06419 -1.468,-0.32082l-1.45,-1.451l-9.642,9.655c-1.56371,1.56022 -4.09529,1.56022 -5.659,0l-4.463,-4.465c-0.3905,-0.39038 -1.0235,-0.39038 -1.414,0l-14.671,14.677c-0.75027,0.75111 -1.76836,1.17315 -2.83,1.17315s-2.07973,-0.42204 -2.83,-1.17315l-2.463,-2.464c-0.39039,-0.38972 -1.02261,-0.38972 -1.413,0l-4.883,4.875c-0.78252,0.76949 -2.03748,0.76949 -2.82,0c-0.3785,-0.37173 -0.59171,-0.87999 -0.59171,-1.4105s0.21321,-1.03877 0.59171,-1.4105l5.58,-5.592c0.75023,-0.7508 1.76811,-1.17265 2.8295,-1.17265c1.06139,0 2.07927,0.42185 2.8295,1.17265l3.169,3.171l15.38,-15.381c0.75023,-0.7508 1.76811,-1.17265 2.8295,-1.17265s2.07927,0.42185 2.8295,1.17265l4.461,4.46c0.18757,0.18778 0.44209,0.29329 0.7075,0.29329s0.51993,-0.10551 0.7075,-0.29329l8.942,-8.946l-1.45,-1.45c-0.38349,-0.38333 -0.50802,-0.95519 -0.31865,-1.46327c0.18937,-0.50808 0.65782,-0.85892 1.19865,-0.89773l6.45,-0.503c0.3431,-0.02231 0.67905,0.10499 0.92121,0.34907c0.24216,0.24407 0.3668,0.58102 0.34179,0.92393z" id="Path"/>
     <path data-original="#bb193b" fill="#bb193b" d="m57.737,1l-2.3,0.178c0.37641,0.23216 0.59319,0.65378 0.563,1.095l-0.5,6.442c-0.00965,0.06785 -0.02504,0.13475 -0.046,0.2l0.676,0.677c0.38438,0.38501 0.95805,0.51038 1.468,0.32082c0.50996,-0.18957 0.86244,-0.65921 0.902,-1.20182l0.5,-6.438c0.02501,-0.34291 -0.09963,-0.67986 -0.34179,-0.92393c-0.24216,-0.24408 -0.57811,-0.37138 -0.92121,-0.34907z" id="Path"/>
     <rect data-original="#ffdc00" y="55" x="2" width="16" rx="2" height="4" fill="#ffdc00" id="Rectangle"/>
     <path data-original="#fec108" fill="#fec108" d="m16,55l-3,0c1.10457,0 2,0.89543 2,2s-0.89543,2 -2,2l3,0c1.10457,0 2,-0.89543 2,-2s-0.89543,-2 -2,-2z" id="Path"/>
     <path data-original="#ffdc00" fill="#ffdc00" d="m38,53c0,-1.10457 -0.89543,-2 -2,-2c1.10457,0 2,-0.89543 2,-2s-0.89543,-2 -2,-2l-12,0c-1.10457,0 -2,0.89543 -2,2s0.89543,2 2,2c-1.10457,0 -2,0.89543 -2,2s0.89543,2 2,2c-1.10457,0 -2,0.89543 -2,2s0.89543,2 2,2l12,0c1.10457,0 2,-0.89543 2,-2s-0.89543,-2 -2,-2c1.10457,0 2,-0.89543 2,-2z" id="Path"/>
     <path data-original="#fec108" fill="#fec108" d="m38,53c0,-1.10457 -0.89543,-2 -2,-2c1.10457,0 2,-0.89543 2,-2s-0.89543,-2 -2,-2l-3,0c1.10457,0 2,0.89543 2,2s-0.89543,2 -2,2c1.10457,0 2,0.89543 2,2s-0.89543,2 -2,2c1.10457,0 2,0.89543 2,2s-0.89543,2 -2,2l3,0c1.10457,0 2,-0.89543 2,-2s-0.89543,-2 -2,-2c1.10457,0 2,-0.89543 2,-2z" id="Path"/>
     <circle data-original="#ffdc00" r="9" fill="#ffdc00" cy="38" cx="30" id="Oval"/>
     <path data-original="#fec108" fill="#fec108" d="m30,29c-0.50288,0.00322 -1.00462,0.04838 -1.5,0.135c4.32973,0.72671 7.50108,4.47471 7.50108,8.865s-3.17135,8.13829 -7.50108,8.865c3.35709,0.58777 6.75819,-0.77118 8.78591,-3.51049c2.02772,-2.73932 2.33416,-6.38902 0.79162,-9.42811c-1.54255,-3.03909 -4.66943,-4.94614 -8.07753,-4.9264z" id="Path"/>
     <path data-original="#ffdc00" fill="#ffdc00" d="m58,45c0,-1.10457 -0.89543,-2 -2,-2c1.10457,0 2,-0.89543 2,-2s-0.89543,-2 -2,-2l-12,0c-1.10457,0 -2,0.89543 -2,2s0.89543,2 2,2c-1.10457,0 -2,0.89543 -2,2s0.89543,2 2,2c-1.10457,0 -2,0.89543 -2,2s0.89543,2 2,2c-1.10457,0 -2,0.89543 -2,2s0.89543,2 2,2c-1.10457,0 -2,0.89543 -2,2s0.89543,2 2,2l12,0c1.10457,0 2,-0.89543 2,-2s-0.89543,-2 -2,-2c1.10457,0 2,-0.89543 2,-2s-0.89543,-2 -2,-2c1.10457,0 2,-0.89543 2,-2s-0.89543,-2 -2,-2c1.10457,0 2,-0.89543 2,-2z" id="Path"/>
     <path data-original="#fec108" fill="#fec108" d="m58,45c0,-1.10457 -0.89543,-2 -2,-2c1.10457,0 2,-0.89543 2,-2s-0.89543,-2 -2,-2l-3,0c1.10457,0 2,0.89543 2,2s-0.89543,2 -2,2c1.10457,0 2,0.89543 2,2s-0.89543,2 -2,2c1.10457,0 2,0.89543 2,2s-0.89543,2 -2,2c1.10457,0 2,0.89543 2,2s-0.89543,2 -2,2c1.10457,0 2,0.89543 2,2s-0.89543,2 -2,2l3,0c1.10457,0 2,-0.89543 2,-2s-0.89543,-2 -2,-2c1.10457,0 2,-0.89543 2,-2s-0.89543,-2 -2,-2c1.10457,0 2,-0.89543 2,-2s-0.89543,-2 -2,-2c1.10457,0 2,-0.89543 2,-2z" id="Path"/>
     <circle data-original="#ffdc00" r="9" fill="#ffdc00" cy="30" cx="50" id="Oval"/>
     <path data-original="#fec108" fill="#fec108" d="m50,21c-0.50288,0.00322 -1.00462,0.04838 -1.5,0.135c4.32973,0.72671 7.50108,4.47471 7.50108,8.865s-3.17135,8.13829 -7.50108,8.865c3.35709,0.58777 6.75819,-0.77118 8.78591,-3.51049c2.02772,-2.73932 2.33416,-6.38902 0.79162,-9.42811c-1.54255,-3.03909 -4.66943,-4.94614 -8.07753,-4.9264z" id="Path"/>
     <circle data-original="#ffdc00" r="9" fill="#ffdc00" cy="46" cx="10" id="Oval"/>
     <path data-original="#fec108" fill="#fec108" d="m10,37c-0.50288,0.00322 -1.00462,0.04838 -1.5,0.135c4.32973,0.72671 7.50108,4.47471 7.50108,8.865s-3.17135,8.13829 -7.50108,8.865c3.35709,0.58777 6.75819,-0.77118 8.78591,-3.51049c2.02772,-2.73932 2.33416,-6.38902 0.79162,-9.42811c-1.54255,-3.03909 -4.66943,-4.94614 -8.07753,-4.9264z" id="Path"/>
     <g id="svg_2" fill="#000">
      <path data-original="#000000" fill="#000000" fill-rule="nonzero" d="m3,32c0.79577,0.00129 1.55932,-0.31428 2.122,-0.877c0.078,-0.078 4.878,-4.869 4.878,-4.869l2.463,2.465c0.9378,0.93858 2.2102,1.46593 3.537,1.46593s2.5992,-0.52735 3.537,-1.46593l14.672,-14.677l4.462,4.464c1.95467,1.95138 5.12033,1.95138 7.075,0l8.932,-8.944l0.742,0.742c0.66081,0.66013 1.64552,0.87503 2.52128,0.55022s1.48219,-1.12984 1.55272,-2.06122l0.5,-6.441l0,-0.01c0.04334,-0.63148 -0.18854,-1.25085 -0.63592,-1.69862c-0.44739,-0.44777 -1.06656,-0.68018 -1.69808,-0.63738l-6.447,0.5c-0.93109,0.06659 -1.73757,0.67069 -2.06326,1.5455c-0.32568,0.87482 -0.1106,1.85923 0.55026,2.5185l0.742,0.744l-8.235,8.239l-4.461,-4.464c-0.9378,-0.93858 -2.2102,-1.46593 -3.537,-1.46593s-2.5992,0.52735 -3.537,1.46593l-14.672,14.678l-2.461,-2.467c-1.95444,-1.95193 -5.12056,-1.95193 -7.075,0l-5.575,5.59c-0.85678,0.85489 -1.11412,2.14175 -0.652,3.26039c0.46212,1.11863 1.55267,1.84867 2.763,1.84961zm-0.7,-3.7l5.579,-5.591c0.5627,-0.56333 1.32627,-0.87986 2.1225,-0.87986s1.5598,0.31653 2.1225,0.87986l3.169,3.171c0.18757,0.18778 0.44209,0.29329 0.7075,0.29329s0.51993,-0.10551 0.7075,-0.29329l15.378,-15.38c1.18779,-1.13499 3.05821,-1.13499 4.246,0l4.462,4.464c0.7915,0.75594 2.0375,0.75594 2.829,0l8.941,-8.946c0.38972,-0.39039 0.38972,-1.02261 0,-1.413l-1.453,-1.453c-0.10989,-0.10197 -0.14461,-0.2616 -0.087,-0.4c0.05043,-0.14702 0.18572,-0.24819 0.341,-0.255l6.443,-0.497c0.05038,-0.00227 0.09927,0.01743 0.134,0.054c0.0396,0.03795 0.06077,0.09122 0.058,0.146l-0.5,6.44c-0.01094,0.15255 -0.10981,0.28472 -0.25307,0.33828c-0.14326,0.05356 -0.3046,0.01868 -0.41293,-0.08928l-1.449,-1.451c-0.39703,-0.37525 -1.01797,-0.37525 -1.415,0l-9.639,9.653c-1.18868,1.13181 -3.05632,1.13181 -4.245,0l-4.462,-4.464c-0.37431,-0.37684 -0.88386,-0.58822 -1.415,-0.587c-0.53024,-0.00061 -1.03882,0.21031 -1.413,0.586l-14.672,14.679c-1.18799,1.13448 -3.05801,1.13448 -4.246,0l-2.463,-2.465c-0.78089,-0.7801 -2.04611,-0.7801 -2.827,0l-4.883,4.875c-0.39181,0.38341 -1.01819,0.38341 -1.41,0c-0.18915,-0.18378 -0.29587,-0.43628 -0.29587,-0.7s0.10672,-0.51622 0.29587,-0.7l0.005,-0.015z" id="Shape"/>
      <path data-original="#000000" fill="#000000" fill-rule="nonzero" d="m40,38c0.00879,-4.70883 -3.26867,-8.7858 -7.86938,-9.78907s-9.27801,1.33905 -11.23047,5.62402s-0.65101,9.35151 3.12485,12.16505l-0.025,0c-1.18561,-0.00525 -2.2621,0.69123 -2.74322,1.77485c-0.48113,1.08362 -0.27581,2.34922 0.52322,3.22515c-1.04005,1.13051 -1.04005,2.86949 0,4c-0.79903,0.87593 -1.00435,2.14153 -0.52322,3.22515c0.48112,1.08362 1.55761,1.7801 2.74322,1.77485l12,0c1.18561,0.00525 2.2621,-0.69123 2.74322,-1.77485c0.48113,-1.08362 0.27581,-2.34922 -0.52322,-3.22515c1.04005,-1.13051 1.04005,-2.86949 0,-4c0.79903,-0.87593 1.00435,-2.14153 0.52322,-3.22515c-0.48112,-1.08362 -1.55761,-1.7801 -2.74322,-1.77485l-0.025,0c2.52972,-1.88142 4.02195,-4.84734 4.025,-8zm-3,15c0,0.55228 -0.44772,1 -1,1l-12,0c-0.55228,0 -1,-0.44772 -1,-1s0.44772,-1 1,-1l12,0c0.55228,0 1,0.44772 1,1zm-1,5l-12,0c-0.55228,0 -1,-0.44772 -1,-1s0.44772,-1 1,-1l12,0c0.55228,0 1,0.44772 1,1s-0.44772,1 -1,1zm0,-10c0.55228,0 1,0.44772 1,1s-0.44772,1 -1,1l-12,0c-0.55228,0 -1,-0.44772 -1,-1s0.44772,-1 1,-1l12,0zm-14,-10c0,-4.41828 3.58172,-8 8,-8s8,3.58172 8,8s-3.58172,8 -8,8c-4.41622,-0.00496 -7.99504,-3.58378 -8,-8z" id="Shape"/>
      <path data-original="#000000" fill="#000000" d="m30,37c-0.48517,-0.00047 -0.90001,-0.34914 -0.98395,-0.82699c-0.08393,-0.47786 0.18724,-0.94702 0.64321,-1.11281c0.45597,-0.16579 0.96515,0.01963 1.20774,0.4398c0.17271,0.32094 0.50635,0.5225 0.8708,0.52607c0.36444,0.00357 0.70196,-0.19142 0.88093,-0.50892s0.17102,-0.70721 -0.02073,-1.01715c-0.36253,-0.60836 -0.92859,-1.06886 -1.598,-1.3l0,-0.2c0,-0.55228 -0.44772,-1 -1,-1s-1,0.44772 -1,1l0,0.184c-1.37655,0.48485 -2.20269,1.89184 -1.95539,3.33018s1.49595,2.48859 2.95539,2.48582c0.48517,0.00047 0.90001,0.34914 0.98395,0.82699c0.08393,0.47786 -0.18724,0.94702 -0.64321,1.11281c-0.45597,0.16579 -0.96515,-0.01963 -1.20774,-0.4398c-0.28439,-0.45968 -0.88259,-0.61017 -1.35064,-0.33978s-0.63651,0.86379 -0.38036,1.33978c0.36302,0.60873 0.92985,1.06927 1.6,1.3l0,0.2c0,0.55228 0.44772,1 1,1s1,-0.44772 1,-1l0,-0.184c1.37691,-0.48497 2.20308,-1.89254 1.95523,-3.33117c-0.24785,-1.43863 -1.49741,-2.48858 -2.95723,-2.48483z" id="Path"/>
      <path data-original="#000000" fill="#000000" fill-rule="nonzero" d="m50,20c-4.30783,-0.00479 -8.13336,2.7529 -9.49051,6.84136s0.05993,8.58641 3.51551,11.15864l-0.025,0c-1.18561,-0.00525 -2.2621,0.69123 -2.74322,1.77485c-0.48113,1.08362 -0.27581,2.34922 0.52322,3.22515c-1.04005,1.13051 -1.04005,2.86949 0,4c-1.04005,1.13051 -1.04005,2.86949 0,4c-1.04005,1.13051 -1.04005,2.86949 0,4c-0.79903,0.87593 -1.00435,2.14153 -0.52322,3.22515c0.48112,1.08362 1.55761,1.7801 2.74322,1.77485l12,0c1.18561,0.00525 2.2621,-0.69123 2.74322,-1.77485c0.48113,-1.08362 0.27581,-2.34922 -0.52322,-3.22515c1.04005,-1.13051 1.04005,-2.86949 0,-4c1.04005,-1.13051 1.04005,-2.86949 0,-4c1.04005,-1.13051 1.04005,-2.86949 0,-4c0.79903,-0.87593 1.00435,-2.14153 0.52322,-3.22515c-0.48112,-1.08362 -1.55761,-1.7801 -2.74322,-1.77485l-0.026,0c3.45676,-2.57148 4.87483,-7.06984 3.51774,-11.15885c-1.3571,-4.08901 -5.18342,-6.84682 -9.49174,-6.84115zm7,25c0,0.55228 -0.44772,1 -1,1l-12,0c-0.55228,0 -1,-0.44772 -1,-1s0.44772,-1 1,-1l12,0c0.55228,0 1,0.44772 1,1zm0,4c0,0.55228 -0.44772,1 -1,1l-12,0c-0.55228,0 -1,-0.44772 -1,-1s0.44772,-1 1,-1l12,0c0.55228,0 1,0.44772 1,1zm0,4c0,0.55228 -0.44772,1 -1,1l-12,0c-0.55228,0 -1,-0.44772 -1,-1s0.44772,-1 1,-1l12,0c0.55228,0 1,0.44772 1,1zm-1,5l-12,0c-0.55228,0 -1,-0.44772 -1,-1s0.44772,-1 1,-1l12,0c0.55228,0 1,0.44772 1,1s-0.44772,1 -1,1zm0,-18c0.55228,0 1,0.44772 1,1s-0.44772,1 -1,1l-12,0c-0.55228,0 -1,-0.44772 -1,-1s0.44772,-1 1,-1l12,0zm-6,-2c-4.41828,0 -8,-3.58172 -8,-8s3.58172,-8 8,-8s8,3.58172 8,8c-0.00496,4.41622 -3.58378,7.99504 -8,8z" id="Shape"/>
      <path data-original="#000000" fill="#000000" d="m50,29c-0.48517,-0.00047 -0.90001,-0.34914 -0.98395,-0.82699c-0.08393,-0.47786 0.18724,-0.94702 0.64321,-1.11281c0.45597,-0.16579 0.96515,0.01963 1.20774,0.4398c0.28439,0.45968 0.88259,0.61017 1.35064,0.33978s0.63651,-0.86379 0.38036,-1.33978c-0.36206,-0.60877 -0.92829,-1.0694 -1.598,-1.3l0,-0.2c0,-0.55228 -0.44772,-1 -1,-1s-1,0.44772 -1,1l0,0.184c-1.37655,0.48485 -2.20269,1.89184 -1.95539,3.33018s1.49595,2.48859 2.95539,2.48582c0.48517,0.00047 0.90001,0.34914 0.98395,0.82699c0.08393,0.47786 -0.18724,0.94702 -0.64321,1.11281c-0.45597,0.16579 -0.96515,-0.01963 -1.20774,-0.4398c-0.28439,-0.45968 -0.88259,-0.61017 -1.35064,-0.33978s-0.63651,0.86379 -0.38036,1.33978c0.36256,0.60913 0.92955,1.06981 1.6,1.3l0,0.2c0,0.55228 0.44772,1 1,1s1,-0.44772 1,-1l0,-0.184c1.37691,-0.48497 2.20308,-1.89254 1.95523,-3.33117c-0.24785,-1.43863 -1.49741,-2.48858 -2.95723,-2.48483z" id="Path"/>
      <path data-original="#000000" fill="#000000" fill-rule="nonzero" d="m4.025,54l-0.025,0c-1.65685,0 -3,1.34315 -3,3s1.34315,3 3,3l12,0c1.65685,0 3,-1.34315 3,-3s-1.34315,-3 -3,-3l-0.025,0c3.45609,-2.57525 4.87333,-7.07516 3.51676,-11.16616c-1.35658,-4.09099 -5.18171,-6.85253 -9.49176,-6.85253c-4.31005,0 -8.13518,2.76154 -9.49176,6.85253c-1.35657,4.091 0.06067,8.59091 3.51676,11.16616zm11.975,2c0.55228,0 1,0.44772 1,1s-0.44772,1 -1,1l-12,0c-0.55228,0 -1,-0.44772 -1,-1s0.44772,-1 1,-1l12,0zm-6,-18c4.41828,0 8,3.58172 8,8s-3.58172,8 -8,8s-8,-3.58172 -8,-8c0.00496,-4.41622 3.58378,-7.99504 8,-8z" id="Shape"/>
      <path data-original="#000000" fill="#000000" d="m10,47c0.48517,0.00047 0.90001,0.34914 0.98395,0.82699c0.08393,0.47786 -0.18724,0.94702 -0.64321,1.11281c-0.45597,0.16579 -0.96515,-0.01963 -1.20774,-0.4398c-0.17271,-0.32094 -0.50635,-0.5225 -0.8708,-0.52607s-0.70196,0.19142 -0.88093,0.50892s-0.17102,0.70721 0.02073,1.01715c0.36302,0.60873 0.92985,1.06927 1.6,1.3l0,0.2c0,0.55228 0.44772,1 1,1s1,-0.44772 1,-1l0,-0.184c1.37691,-0.48497 2.20308,-1.89254 1.95523,-3.33117c-0.24785,-1.43863 -1.49741,-2.48858 -2.95723,-2.48483c-0.48517,-0.00047 -0.90001,-0.34914 -0.98395,-0.82699c-0.08393,-0.47786 0.18724,-0.94702 0.64321,-1.11281c0.45597,-0.16579 0.96515,0.01963 1.20774,0.4398c0.17271,0.32094 0.50635,0.5225 0.8708,0.52607c0.36444,0.00357 0.70196,-0.19142 0.88093,-0.50892s0.17102,-0.70721 -0.02073,-1.01715c-0.36253,-0.60836 -0.92859,-1.06886 -1.598,-1.3l0,-0.2c0,-0.55228 -0.44772,-1 -1,-1s-1,0.44772 -1,1l0,0.184c-1.37655,0.48485 -2.20269,1.89184 -1.95539,3.33018c0.24731,1.43833 1.49595,2.48859 2.95539,2.48582z" id="Path"/>
     </g>
    </g>
   </g>
  </g>
 </g>
</svg>