<svg width="64" height="64" xmlns="http://www.w3.org/2000/svg" xml:space="preserve" version="1.1">

 <g>
  <title>Layer 1</title>
  <g id="svg_1">
   <g id="svg_2" xmlns="http://www.w3.org/2000/svg">
    <g id="svg_3">
     <g id="svg_4" fill="#959a8f">
      <path id="svg_5" data-original="#959a8f" fill="#959a8f" d="m50,34l-4,0c-0.55273,0 -1,0.44775 -1,1l0,12c0,0.55225 0.44727,1 1,1l4,0c0.55273,0 1,-0.44775 1,-1l0,-12c0,-0.55225 -0.44727,-1 -1,-1z"/>
      <path id="svg_6" data-original="#959a8f" fill="#959a8f" d="m34,34l-4,0c-0.55273,0 -1,0.44775 -1,1l0,4.30823c1.83765,1.64831 3,4.0346 3,6.69177l0,2l2,0c0.55273,0 1,-0.44775 1,-1l0,-12c0,-0.55225 -0.44727,-1 -1,-1z"/>
     </g>
     <g id="svg_7" fill="#818991">
      <path id="svg_8" data-original="#818991" fill="#818991" d="m52,31l-8,0c-0.55273,0 -1,0.44775 -1,1l0,3c0,0.55225 0.44727,1 1,1l8,0c0.55273,0 1,-0.44775 1,-1l0,-3c0,-0.55225 -0.44727,-1 -1,-1z"/>
      <path id="svg_9" data-original="#818991" fill="#818991" d="m36,31l-8,0c-0.37378,0 -0.82837,-0.30334 -1,0c0.27911,0.38196 0.54755,1.1156 0.66309,1.73071c0.00634,0.03467 0.02124,0.06629 0.02636,0.10132c0.00434,0.02942 -0.00097,0.05835 0.00251,0.08777c0.01794,0.12891 0.0307,0.2525 0.0307,0.35999c0,0.05896 -0.01197,0.11535 -0.01545,0.17358c-0.00372,0.06421 -0.00915,0.12677 -0.0169,0.19037c-0.01898,0.15069 -0.05054,0.29736 -0.09217,0.44153c-0.0296,0.10693 -0.06518,0.20953 -0.10626,0.31225c-0.05017,0.12085 -0.10144,0.2414 -0.16711,0.35517c-0.07172,0.12768 -0.15863,0.24377 -0.24903,0.35998c-0.01489,0.01904 -0.02563,0.04059 -0.04101,0.05933c0.08429,0.46698 0.47363,0.828 0.96527,0.828l8,0c0.55273,0 1,-0.44775 1,-1l0,-3c0,-0.55225 -0.44727,-1 -1,-1z"/>
      <path id="svg_10" data-original="#818991" fill="#818991" d="m52,46l-8,0c-0.55273,0 -1,0.44775 -1,1l0,3c0,0.55225 0.44727,1 1,1l8,0c0.55273,0 1,-0.44775 1,-1l0,-3c0,-0.55225 -0.44727,-1 -1,-1z"/>
      <path id="svg_11" data-original="#818991" fill="#818991" d="m36,46l-4,0l0,5l4,0c0.55273,0 1,-0.44775 1,-1l0,-3c0,-0.55225 -0.44727,-1 -1,-1z"/>
     </g>
     <path id="svg_12" data-original="#959a8f" fill="#959a8f" d="m55,49l-23,0l0,5c0,0.34039 -0.03265,0.67249 -0.07983,1l23.07983,0c0.55273,0 1,-0.44775 1,-1l0,-4c0,-0.55225 -0.44727,-1 -1,-1z"/>
     <g id="svg_13">
      <path id="svg_14" data-original="#818991" fill="#818991" d="m58,53l-26,0l0,1c0,1.95795 -0.81036,3.72833 -2.11053,5l28.11053,0c0.55273,0 1,-0.44775 1,-1l0,-4c0,-0.55225 -0.44727,-1 -1,-1z"/>
     </g>
     <path id="svg_15" data-original="#abadb0" fill="#abadb0" d="m55,27l-46,0c-0.55273,0 -1,0.44775 -1,1l0,4c0,0.55225 0.44727,1 1,1l1.30591,0c0.005,-0.05548 -0.00348,-0.11005 0.00464,-0.16553c0.12597,-0.85986 0.62109,-1.61572 1.34082,-2.0581c0.11718,-0.08252 0.24121,-0.15723 0.36718,-0.22852l0.05665,-0.04199l0.06445,-0.03467c0.56543,-0.36181 1.6123,-1.03125 3.36035,-1.03125c1.75488,0 2.80469,0.67334 3.36914,1.03516l0.11719,0.07519l0.02734,0l0.11719,-0.07519c0.56445,-0.36182 1.61426,-1.03516 3.36914,-1.03516c1.74805,0 2.79492,0.66944 3.35645,1.02881l0.11328,0.07813c0.13281,0.07128 0.25879,0.14599 0.37597,0.22753c0.72071,0.4419 1.21778,1.19727 1.34375,2.05762c0.0083,0.05628 -0.0003,0.1117 0.00482,0.16797l27.30573,0c0.55273,0 1,-0.44775 1,-1l0,-4c0,-0.55225 -0.44727,-1 -1,-1z"/>
     <path id="svg_16" data-original="#818991" fill="#818991" d="m57,23l-50,0c-0.55273,0 -1,0.44775 -1,1l0,4c0,0.55225 0.44727,1 1,1l50,0c0.55273,0 1,-0.44775 1,-1l0,-4c0,-0.55225 -0.44727,-1 -1,-1z"/>
     <path id="svg_17" data-original="#809ead" fill="#809ead" d="m58.56934,23.17773l-26,-18c-0.3418,-0.2373 -0.79688,-0.2373 -1.13868,0l-26,18c-0.35937,0.24903 -0.51562,0.70313 -0.38476,1.12061c0.12988,0.41748 0.51659,0.70166 0.9541,0.70166l52,0c0.43749,0 0.82422,-0.28418 0.9541,-0.70166c0.13086,-0.41748 -0.02539,-0.87158 -0.38476,-1.12061z"/>
    </g>
    <g id="svg_18">
     <path id="svg_19" data-original="#c58d3a" fill="#c58d3a" d="m16.32422,36.33008l-3.0332,-3.0332l0.08789,-0.06885c0.03418,-0.02539 0.07519,-0.04541 0.11523,-0.06787c0.11133,-0.06299 0.2207,-0.12793 0.32031,-0.20166c0.37305,-0.23584 0.81446,-0.51856 1.68555,-0.51856c0.84277,0 1.28613,0.26416 1.70117,0.52979c0.47266,0.37793 1.10547,0.58496 1.79102,0.58496c0.70019,0 1.33301,-0.20703 1.80664,-0.58496c0.41504,-0.26563 0.8584,-0.52979 1.70117,-0.52979c0.87109,0 1.3125,0.28272 1.74023,0.55615c0.04688,0.03662 0.1543,0.10059 0.26465,0.16309c0.04004,0.02246 0.08203,0.04297 0.11817,0.07031l0.07812,0.05713l-3.02637,3.04346l-5.35058,0z"/>
     <path id="svg_20" data-original="#c62828" fill="#c62828" d="m15,40l0,-1c0,-1.10303 0.89746,-2 2,-2l4,0c1.10254,0 2,0.89697 2,2l0,1l-8,0z"/>
     <path id="svg_21" data-original="#c58d3a" fill="#c58d3a" d="m13,58c-2.20605,0 -4,-1.79443 -4,-4l0,-8c0,-3.30859 2.69141,-6 6,-6l8,0c3.30859,0 6,2.69141 6,6l0,8c0,2.20557 -1.79395,4 -4,4l-12,0z"/>
    </g>
    <path id="svg_22" data-original="#000000" fill="#000000" d="m8.25977,58c0,0.55225 -0.44728,1 -1,1l-1.25977,0c-0.55273,0 -1,-0.44775 -1,-1l0,-4c0,-0.55225 0.44727,-1 1,-1s1,0.44775 1,1l0,3l0.25977,0c0.55272,0 1,0.44775 1,1zm50.74023,-4l0,4c0,0.55225 -0.44727,1 -1,1l-27.25977,0c-0.55274,0 -1,-0.44775 -1,-1s0.44726,-1 1,-1l26.25977,0l0,-2l-25,0c-0.55273,0 -1,-0.44775 -1,-1s0.44727,-1 1,-1l22,0l0,-2l-22,0c-0.55273,0 -1,-0.44775 -1,-1s0.44727,-1 1,-1l3,0l0,-1l-3,0c-0.55273,0 -1,-0.44775 -1,-1s0.44727,-1 1,-1l1,0l0,-10l-2,0l0,4.37988c0,0.55225 -0.44727,1 -1,1s-1,-0.44775 -1,-1l0,-4.37988l-1,0c-0.55273,0 -1,-0.44775 -1,-1l0,-2.09918c-0.3407,-0.15943 -0.58008,-0.49988 -0.58008,-0.90082c0,-0.55225 0.44727,-1 1,-1l26.58008,0l0,-2l-44,0l0,2l0.58008,0c0.55273,0 1,0.44775 1,1s-0.44727,1 -1,1l-1.58008,0c-0.55273,0 -1,-0.44775 -1,-1l0,-3l-1,0c-0.55273,0 -1,-0.44775 -1,-1l0,-3c-0.43751,0 -0.82422,-0.28418 -0.9541,-0.70166c-0.13086,-0.41748 0.02539,-0.87158 0.38476,-1.12061l26,-18c0.3418,-0.2373 0.79688,-0.2373 1.13868,0l26,18c0.35937,0.24903 0.51562,0.70313 0.38476,1.12061c-0.12988,0.41748 -0.51661,0.70166 -0.9541,0.70166l0,3c0,0.55225 -0.44727,1 -1,1l-1,0l0,3c0,0.55225 -0.44727,1 -1,1l-2,0l0,2c0,0.55225 -0.44727,1 -1,1l-1,0l0,10l1,0c0.55273,0 1,0.44775 1,1l0,2l2,0c0.55273,0 1,0.44775 1,1l0,3l2,0c0.55273,0 1,0.44775 1,1zm-49.79883,-31l45.59766,0l-22.79883,-15.78369l-22.79883,15.78369zm-1.20117,2l0,2l48,0l0,-2l-48,0zm37,23l0,1l6,0l0,-1l-6,0zm4,-12l-2,0l0,10l2,0l0,-10zm2,-3l-6,0l0,1l6,0l0,-1zm-22,1l6,0l0,-1l-6,0l0,1zm8,13l0,2l6,0l0,-2c0,-0.55225 0.44727,-1 1,-1l1,0l0,-10l-1,0c-0.55273,0 -1,-0.44775 -1,-1l0,-2l-6,0l0,2c0,0.55225 -0.44727,1 -1,1l-1,0l0,10l1,0c0.55273,0 1,0.44775 1,1zm-17.33008,1l-1.33984,0c-0.16016,0 -0.27539,-0.04883 -0.33008,-0.08643l0,-0.72216c0.00391,-0.02149 0.00684,-0.04297 0.00879,-0.06495c0.0166,-0.03222 0.12695,-0.12646 0.32129,-0.12646l1.33984,0c0.1875,0 0.30664,0.09082 0.3291,0.13281c0.07325,0.54297 0.55762,0.93067 1.11621,0.85938c0.54786,-0.06885 0.93555,-0.56885 0.86719,-1.1167c-0.12109,-0.96765 -0.94867,-1.7132 -1.98242,-1.84754l0,-1.02795c-0.00525,-1.30737 -1.99451,-1.30817 -2,0l0,1.02673c-0.99335,0.12787 -1.78857,0.81665 -1.9541,1.72571c-0.0459,0.15918 -0.0459,0.29248 -0.0459,0.35742l0,0.89014c0,1.10303 1.04492,2 2.33008,2l1.33984,0c0.16016,0 0.27539,0.04883 0.33008,0.08643l0,0.82714c-0.05469,0.0376 -0.16992,0.08643 -0.33008,0.08643l-1.33984,0c-0.19434,0 -0.30469,-0.09424 -0.31641,-0.10742c-0.05957,-0.54834 -0.5498,-0.94727 -1.10156,-0.88672c-0.54883,0.05908 -0.94629,0.55273 -0.88672,1.10156c0.10529,0.97742 0.93066,1.73023 1.97461,1.86469l0,1.02789c0.00525,1.30737 1.99451,1.30811 2,0l0,-1.02863c1.12793,-0.13903 2,-0.96533 2,-1.97137l0,-1c0,-1.10303 -1.04492,-2 -2.33008,-2zm10.33008,6c0,2.75684 -2.24316,5 -5,5l-12,0c-2.75684,0 -5,-2.24316 -5,-5l0,-8c0,-3.51947 2.61377,-6.43225 6,-6.9201l0,-0.0799c0,-0.97504 0.47467,-1.83435 1.19733,-2.38263l-2.62732,-2.62738c-0.44092,-0.42706 -0.3819,-1.24719 0.17816,-1.53784c0.14343,-0.11652 0.32483,-0.18915 0.4696,-0.29639c0.47168,-0.30176 1.11621,-0.71582 2.28223,-0.71582c1.16992,0 1.81738,0.41602 2.29102,0.71973c0.6253,0.5343 1.80035,0.52209 2.42187,-0.00391c0.47266,-0.30224 1.12109,-0.71582 2.28711,-0.71582s1.81055,0.41406 2.28223,0.71582c0.14477,0.10724 0.32617,0.17987 0.4696,0.29639c0.56006,0.29053 0.61908,1.1109 0.17816,1.53784l-2.62732,2.62738c0.72266,0.54828 1.19733,1.40759 1.19733,2.38263l0,0.07989c3.38623,0.48786 6,3.40064 6,6.92011l0,8zm-12.57996,-18l3.15992,0l2.48309,-2.48303c-0.58923,-0.19171 -1.33838,-0.02564 -1.77399,0.32483c-0.47558,0.30322 -1.12597,0.71826 -2.29883,0.71826c-1.1621,0 -1.80859,-0.41455 -2.27929,-0.71729c-0.43518,-0.35193 -1.18347,-0.51733 -1.77399,-0.3258l2.48309,2.48303zm3.57996,2l-4,0c-0.55176,0 -1,0.44873 -1,1l6,0c0,-0.55127 -0.44824,-1 -1,-1zm7,8c0,-2.75684 -2.24316,-5 -5,-5l-8,0c-2.75684,0 -5,2.24316 -5,5l0,8c0,1.6543 1.3457,3 3,3l12,0c1.6543,0 3,-1.3457 3,-3l0,-8z"/>
   </g>
  </g>
 </g>
</svg>