<svg width="64" height="64" xmlns="http://www.w3.org/2000/svg" xml:space="preserve" version="1.1">

 <g>
  <title>Layer 1</title>
  <g id="svg_1">
   <g id="svg_2" xmlns="http://www.w3.org/2000/svg">
    <g id="svg_3">
     <g id="svg_4">
      <path id="svg_5" data-original="#ffeaa7" fill="#ffeaa7" d="m21,40l4,17l-5,5l-5,-5l4,-17l2,0z"/>
     </g>
     <g id="svg_6">
      <path id="svg_7" data-original="#fcd770" fill="#fcd770" d="m21.94,37.17l-0.94,2.83l-2,0l-0.94,-2.83l1.94,-1.17l1.94,1.17z"/>
     </g>
     <g id="svg_8">
      <path id="svg_9" data-original="#ff826e" fill="#ff826e" d="m30,45l0,17l-10,0l5,-5l-4,-17l0.94,-2.83l3.06,1.83l1,-5l8,0c1.62,0 3.18,-0.28 4.63,-0.79c1.05,2.85 3.32,5.12 6.17,6.16c-3.79,3.1 -8.51,5.11 -13.72,5.54l-1.08,0.09z"/>
     </g>
     <g id="svg_10">
      <path id="svg_11" data-original="#ff826e" fill="#ff826e" d="m15,39l3.06,-1.83l0.94,2.83l-4,17l5,5l-10,0l-8,0l0,-10.68c0,-7.69 4.94,-14.41 12.1,-16.8l0.9,4.48z"/>
     </g>
     <g id="svg_12">
      <path id="svg_13" data-original="#fc6e51" fill="#fc6e51" d="m26,34l-1,5l-3.06,-1.83l-1.94,-1.17l4,-2l2,0z"/>
     </g>
     <g id="svg_14">
      <path id="svg_15" data-original="#fc6e51" fill="#fc6e51" d="m20,36l-1.94,1.17l-3.06,1.83l-0.9,-4.48c0.62,-0.21 1.25,-0.38 1.9,-0.52l4,2z"/>
     </g>
     <g id="svg_16">
      <path id="svg_17" data-original="#ffeaa7" fill="#ffeaa7" d="m54,12c-1.1,0 -2,0.9 -2,2l0,2l-6,0c0.55,0 1.05,-0.22 1.41,-0.59c0.37,-0.36 0.59,-0.86 0.59,-1.41s-0.22,-1.05 -0.59,-1.41c-0.36,-0.37 -0.86,-0.59 -1.41,-0.59l4,0l4,0z"/>
     </g>
     <g id="svg_18">
      <path id="svg_19" data-original="#a0d468" fill="#a0d468" d="m49.79,11.58l0.21,0.42l-4,0l-2,-4c0.61,-1.23 1.87,-2 3.24,-2l0.88,0c0.23,1.94 0.79,3.82 1.67,5.58z"/>
     </g>
     <g id="svg_20">
      <path id="svg_21" data-original="#b4dd7f" fill="#b4dd7f" d="m56,6c0,1.96 -0.58,3.87 -1.66,5.5l-0.34,0.5l-4,0l-0.21,-0.42c-0.88,-1.76 -1.44,-3.64 -1.67,-5.58c-0.08,-0.66 -0.12,-1.33 -0.12,-2c3,0 5,0.5 6.25,1s1.75,1 1.75,1z"/>
     </g>
     <g id="svg_22">
      <path id="svg_23" data-original="#b4dd7f" fill="#b4dd7f" d="m55.49,17.87l4.24,5.29c1.47,1.84 2.27,4.12 2.27,6.48c0,2.86 -1.16,5.45 -3.04,7.32c-1.87,1.88 -4.46,3.04 -7.32,3.04l-3.28,0c-1.25,0 -2.45,-0.22 -3.56,-0.63c-2.85,-1.04 -5.12,-3.31 -6.17,-6.16c-0.41,-1.11 -0.63,-2.31 -0.63,-3.57c0,-2.36 0.8,-4.64 2.27,-6.48l5.73,-7.16l6,0c0,1.1 0.9,2 2,2l1,0c0.18,0 0.35,-0.05 0.49,-0.13z"/>
     </g>
     <g id="svg_24">
      <path id="svg_25" data-original="#656d78" fill="#656d78" d="m25.33,12.22c-0.15,0.22 -0.32,0.42 -0.5,0.61c-0.73,0.72 -1.73,1.17 -2.83,1.17c-1.3,0 -2.58,-0.39 -3.66,-1.11l-0.37,-0.25c-0.63,-0.42 -1.37,-0.64 -2.13,-0.64c-1.06,0 -2.02,0.43 -2.72,1.12c-0.69,0.7 -1.12,1.66 -1.12,2.72l0,2.16l-1,0c-0.79,0 -1.5,0.3 -2.03,0.8l-0.83,-4.97c-0.09,-0.55 -0.14,-1.11 -0.14,-1.67c0,-2.8 1.14,-5.34 2.98,-7.18s4.38,-2.98 7.18,-2.98l3.68,0c5.61,0 10.16,4.55 10.16,10.16c0,0.56 -0.05,1.12 -0.14,1.67l-0.83,4.97c-0.53,-0.5 -1.24,-0.8 -2.03,-0.8l-1,0l0,-1.86c0,-1.34 -0.67,-2.59 -1.78,-3.33l-0.89,-0.59z"/>
     </g>
     <g id="svg_26">
      <path id="svg_27" data-original="#f0d0b4" fill="#f0d0b4" d="m55.49,17.87c-0.14,0.08 -0.31,0.13 -0.49,0.13l-1,0c-1.1,0 -2,-0.9 -2,-2l0,-2c0,-1.1 0.9,-2 2,-2l1,0c0.55,0 1,0.45 1,1l0,4c0,0.37 -0.21,0.7 -0.51,0.87z"/>
     </g>
     <g id="svg_28">
      <path id="svg_29" data-original="#f0d0b4" fill="#f0d0b4" d="m48,14c0,0.55 -0.22,1.05 -0.59,1.41c-0.36,0.37 -0.86,0.59 -1.41,0.59c-1.1,0 -2,-0.9 -2,-2c0,-0.55 0.22,-1.05 0.59,-1.41c0.36,-0.37 0.86,-0.59 1.41,-0.59s1.05,0.22 1.41,0.59c0.37,0.36 0.59,0.86 0.59,1.41z"/>
     </g>
     <g id="svg_30">
      <path id="svg_31" data-original="#f0d0b4" fill="#f0d0b4" d="m31.03,18.8c0.6,0.54 0.97,1.33 0.97,2.2c0,0.83 -0.34,1.58 -0.88,2.12s-1.29,0.88 -2.12,0.88l-1,0l0,-6l1,0c0.79,0 1.5,0.3 2.03,0.8z"/>
     </g>
     <g id="svg_32">
      <path id="svg_33" data-original="#f0d0b4" fill="#f0d0b4" d="m23.18,29.88l0.82,4.12l-4,2l-4,-2l0.82,-4.12c0.38,0.08 0.78,0.12 1.18,0.12l4,0c0.4,0 0.8,-0.04 1.18,-0.12z"/>
     </g>
     <g id="svg_34">
      <path id="svg_35" data-original="#f0d0b4" fill="#f0d0b4" d="m28,18l0,6c0,2.91 -2.07,5.34 -4.82,5.88c-0.38,0.08 -0.78,0.12 -1.18,0.12l-4,0c-0.4,0 -0.8,-0.04 -1.18,-0.12c-2.75,-0.54 -4.82,-2.97 -4.82,-5.88l0,-6l0,-2.16c0,-1.06 0.43,-2.02 1.12,-2.72c0.7,-0.69 1.66,-1.12 2.72,-1.12c0.76,0 1.5,0.22 2.13,0.64l0.37,0.25c1.08,0.72 2.36,1.11 3.66,1.11c1.1,0 2.1,-0.45 2.83,-1.17c0.18,-0.19 0.35,-0.39 0.5,-0.61l0.89,0.59c1.11,0.74 1.78,1.99 1.78,3.33l0,1.86z"/>
     </g>
     <g id="svg_36">
      <path id="svg_37" data-original="#f0d0b4" fill="#f0d0b4" d="m12,18l0,6l-1,0c-0.83,0 -1.58,-0.34 -2.12,-0.88s-0.88,-1.29 -0.88,-2.12c0,-0.87 0.37,-1.66 0.97,-2.2c0.53,-0.5 1.24,-0.8 2.03,-0.8l1,0z"/>
     </g>
    </g>
    <g id="svg_38">
     <circle id="svg_39" data-original="#000000" fill="#000000" r="1" cy="18" cx="16"/>
     <circle id="svg_40" data-original="#000000" fill="#000000" r="1" cy="18" cx="24"/>
     <path id="svg_41" data-original="#000000" fill="#000000" d="m25,23l-2,0c0,1.103 -0.897,2 -2,2l-4,0l0,2l4,0c2.206,0 4,-1.794 4,-4z"/>
     <path id="svg_42" data-original="#000000" fill="#000000" d="m31,45.92l0.162,-0.013c5.071,-0.423 9.832,-2.302 13.823,-5.42c1.068,0.333 2.203,0.513 3.379,0.513l3.271,0c6.267,0 11.365,-5.098 11.365,-11.364c0,-2.571 -0.885,-5.092 -2.49,-7.099l-3.724,-4.655c0.133,-0.267 0.214,-0.564 0.214,-0.882l0,-4c0,-0.853 -0.539,-1.577 -1.292,-1.864c0.844,-1.578 1.292,-3.332 1.292,-5.136l0,-0.414l-0.293,-0.293c-0.234,-0.235 -2.473,-2.293 -8.707,-2.293l-1,0l0,1c0,0.338 0.01,0.677 0.03,1.014c-1.676,0.074 -3.168,1.026 -3.924,2.538l-0.224,0.448l1.689,3.379c-0.931,0.509 -1.571,1.487 -1.571,2.621c0,1.036 0.528,1.95 1.328,2.489l-4.838,6.047c-1.605,2.007 -2.49,4.529 -2.49,7.1c0,1.008 0.145,1.981 0.392,2.912c-1.101,0.297 -2.237,0.452 -3.392,0.452l-9.18,0l-0.482,-2.41c2.408,-0.857 4.208,-2.993 4.583,-5.59l0.079,0c2.206,0 4,-1.794 4,-4c0,-0.951 -0.347,-1.813 -0.903,-2.5l0.751,-4.505c0.1,-0.602 0.152,-1.22 0.152,-1.836c0,-6.153 -5.006,-11.159 -11.159,-11.159l-3.682,0c-6.153,0 -11.159,5.006 -11.159,11.159c0,0.616 0.052,1.234 0.152,1.835l0.751,4.506c-0.556,0.687 -0.903,1.549 -0.903,2.5c0,2.206 1.794,4 4,4l0.08,0c0.374,2.597 2.174,4.733 4.582,5.59l-0.521,2.601c-8.229,2.08 -14.141,9.587 -14.141,18.127l0,11.682l62,0l0,-2l-32,0l0,-15.08zm20,-31.92l0,1l-2.184,0c0.112,-0.314 0.184,-0.648 0.184,-1s-0.072,-0.686 -0.184,-1l2.369,0c-0.113,0.314 -0.185,0.648 -0.185,1zm-5,-1c0.552,0 1,0.449 1,1s-0.448,1 -1,1s-1,-0.449 -1,-1s0.448,-1 1,-1zm7,1c0,-0.551 0.448,-1 1,-1l1,0l0.001,4l-1.001,0c-0.552,0 -1,-0.449 -1,-1l0,-2zm1.987,-7.514c-0.087,1.591 -0.595,3.122 -1.483,4.455l-0.039,0.059l-2.838,0c-0.911,-1.863 -1.459,-3.907 -1.593,-5.979c3.502,0.151 5.292,1.043 5.953,1.465zm-7.751,0.514l0.021,0c0.234,1.373 0.626,2.719 1.168,4l-1.807,0l-1.477,-2.954c0.489,-0.654 1.256,-1.046 2.095,-1.046zm-6.183,16.786l5.428,-6.786l4.703,0c0.414,1.161 1.514,2 2.816,2l1,0c0.038,0 0.073,-0.009 0.11,-0.011l3.838,4.797c1.323,1.654 2.052,3.731 2.052,5.85c0,5.163 -4.201,9.364 -9.364,9.364l-3.271,0c-5.164,0 -9.365,-4.201 -9.365,-9.364c0,-2.119 0.729,-4.196 2.053,-5.85zm-2.978,10.643c1.02,2.179 2.702,3.987 4.797,5.149c-3.493,2.48 -7.563,3.976 -11.872,4.335l0,-1.913l-2,0l0,19l-6.586,0l3.687,-3.687l-4.063,-17.266l0.46,-1.382l3.204,1.922l1.118,-5.587l7.18,0c1.388,0 2.754,-0.198 4.075,-0.571zm-22.187,0.633l2.036,1.018l-2.221,1.333l-0.437,-2.188c0.205,-0.058 0.412,-0.114 0.622,-0.163zm8.348,-0.062l0.544,0l-0.482,2.413l-2.221,-1.333l2.159,-1.08zm-4.236,2.166l0.742,0.445l-0.462,1.389l-0.56,0l-0.463,-1.388l0.743,-0.446zm-0.208,3.834l0.417,0l3.691,15.687l-3.9,3.899l-3.899,-3.899l3.691,-15.687zm9.208,-18l0,-4c1.103,0 2,0.897 2,2s-0.897,2 -2,2zm-20,-2c0,-1.103 0.897,-2 2,-2l0,4c-1.103,0 -2,-0.897 -2,-2zm2,-5.162l0,1.162c-0.451,0 -0.877,0.091 -1.281,0.229l-0.594,-3.565c-0.083,-0.493 -0.125,-0.999 -0.125,-1.505c0,-5.05 4.108,-9.159 9.159,-9.159l3.682,0c5.051,0 9.159,4.109 9.159,9.159c0,0.505 -0.042,1.012 -0.125,1.506l-0.594,3.564c-0.404,-0.138 -0.83,-0.229 -1.281,-0.229l0,-0.859c0,-1.676 -0.832,-3.231 -2.227,-4.16l-0.143,-0.095c0.239,-0.583 0.37,-1.219 0.37,-1.886c0,-2.755 -2.242,-4.997 -5.084,-4.999c0,0 0,0 -0.001,0c-0.778,0 -1.511,0.303 -2.062,0.854c-0.549,0.55 -0.853,1.283 -0.853,2.145c0,1.653 1.345,3 2.999,3l1.001,0l0,-2l-1.001,0c-0.551,0 -0.999,-0.449 -0.999,-1.083c0,-0.245 0.095,-0.475 0.269,-0.648c0.171,-0.172 0.402,-0.268 0.731,-0.268l0.001,0c1.653,0.001 2.999,1.346 2.999,2.999c0,1.654 -1.346,3 -3,3c-1.11,0 -2.186,-0.326 -3.109,-0.941l-0.369,-0.246c-0.798,-0.532 -1.726,-0.813 -2.684,-0.813c-2.668,0 -4.838,2.17 -4.838,4.838zm2,8.162l0,-8.162c0,-1.565 1.273,-2.838 2.838,-2.838c0.562,0 1.106,0.165 1.574,0.477l0.369,0.246c1.254,0.835 2.713,1.277 4.219,1.277c1.371,0 2.615,-0.555 3.52,-1.452l0.145,0.096c0.836,0.558 1.335,1.491 1.335,2.497l0,7.859c0,2.757 -2.243,5 -5,5l-4,0c-2.757,0 -5,-2.243 -5,-5zm5,7l4,0c0.127,0 0.251,-0.012 0.376,-0.019l0.493,2.466l-2.869,1.435l-2.869,-1.435l0.493,-2.466c0.125,0.007 0.249,0.019 0.376,0.019zm-15,20.318c0,-6.815 4.213,-12.903 10.355,-15.447l0.943,4.716l3.204,-1.922l0.46,1.382l-4.063,17.266l3.687,3.687l-6.586,0l0,-15l-2,0l0,15l-6,0l0,-9.682z"/>
     <path id="svg_43" data-original="#000000" fill="#000000" d="m49,32.816l0,2.184l2,0l0,-2l2,0l0,-3c0,-1.654 -1.346,-3 -3,-3c-0.552,0 -1,-0.449 -1,-1l0,-1l1,0c0.552,0 1,0.449 1,1l0,1l2,0l0,-1c0,-1.302 -0.839,-2.402 -2,-2.816l0,-2.184l-2,0l0,2l-2,0l0,3c0,1.654 1.346,3 3,3c0.552,0 1,0.449 1,1l0,1l-1,0c-0.552,0 -1,-0.449 -1,-1l0,-1l-2,0l0,1c0,1.302 0.839,2.402 2,2.816z"/>
    </g>
   </g>
  </g>
 </g>
</svg>