<svg width="64" height="64" xmlns="http://www.w3.org/2000/svg" xml:space="preserve" version="1.1">

 <g>
  <title>Layer 1</title>
  <g id="svg_1">
   <g id="svg_2" xmlns="http://www.w3.org/2000/svg">
    <g id="svg_3">
     <g id="svg_4">
      <path id="svg_5" data-original="#e6e9ed" fill="#e6e9ed" d="m2,9l0,38l40,0c0,-2.76 2.24,-5 5,-5s5,2.24 5,5l4,0l0,-38l-54,0z"/>
     </g>
     <g id="svg_6">
      <path id="svg_7" data-original="#fcd770" fill="#fcd770" d="m6,35l4,0l0,8l-4,0l0,-8z"/>
     </g>
     <g id="svg_8">
      <path id="svg_9" data-original="#fcd770" fill="#fcd770" d="m14,37l4,0l0,6l-4,0l0,-6z"/>
     </g>
     <g id="svg_10">
      <path id="svg_11" data-original="#fcd770" fill="#fcd770" d="m22,29l4,0l0,14l-4,0l0,-14z"/>
     </g>
     <g id="svg_12">
      <path id="svg_13" data-original="#fcd770" fill="#fcd770" d="m34,33l0,6.52c-0.62,1.08 -1.12,2.25 -1.46,3.48l-2.54,0l0,-10l4,0z"/>
     </g>
     <g id="svg_14">
      <path id="svg_15" data-original="#ccd1d9" fill="#ccd1d9" d="m47,38c-4.97,0 -9,4.03 -9,9c0,1.64 0.44,3.18 1.21,4.5c1.55,2.69 4.46,4.5 7.79,4.5s6.24,-1.81 7.79,-4.5c0.77,-1.32 1.21,-2.86 1.21,-4.5c0,-4.97 -4.03,-9 -9,-9zm0,14c-2.76,0 -5,-2.24 -5,-5s2.24,-5 5,-5s5,2.24 5,5s-2.24,5 -5,5z"/>
     </g>
     <g id="svg_16">
      <path id="svg_17" data-original="#fcd770" fill="#fcd770" d="m54.79,51.5l5.2,3c-2.6,4.48 -7.44,7.5 -12.99,7.5s-10.39,-3.02 -12.99,-7.5l5.2,-3c1.55,2.69 4.46,4.5 7.79,4.5s6.24,-1.81 7.79,-4.5z"/>
     </g>
     <g id="svg_18">
      <path id="svg_19" data-original="#ff826e" fill="#ff826e" d="m62,47c0,2.73 -0.73,5.3 -2.01,7.5l-5.2,-3c0.77,-1.32 1.21,-2.86 1.21,-4.5c0,-4.97 -4.03,-9 -9,-9l0,-6c3.38,0 6.5,1.12 9,3c3.64,2.74 6,7.1 6,12z"/>
     </g>
     <g id="svg_20">
      <path id="svg_21" data-original="#b4dd7f" fill="#b4dd7f" d="m47,32l0,6c-4.97,0 -9,4.03 -9,9c0,1.64 0.44,3.18 1.21,4.5l-5.2,3c-1.28,-2.2 -2.01,-4.77 -2.01,-7.5c0,-1.38 0.19,-2.73 0.54,-4c0.34,-1.23 0.84,-2.4 1.46,-3.48c2.59,-4.5 7.45,-7.52 13,-7.52z"/>
     </g>
     <g id="svg_22">
      <path id="svg_23" data-original="#ff826e" fill="#ff826e" d="m29.41,22.59c0.37,0.36 0.59,0.86 0.59,1.41c0,1.1 -0.9,2 -2,2s-2,-0.9 -2,-2s0.9,-2 2,-2c0.55,0 1.05,0.22 1.41,0.59z"/>
     </g>
     <g id="svg_24">
      <path id="svg_25" data-original="#ff826e" fill="#ff826e" d="m38.41,16.41c-0.36,0.37 -0.86,0.59 -1.41,0.59s-1.05,-0.22 -1.41,-0.59c-0.37,-0.36 -0.59,-0.86 -0.59,-1.41c0,-1.1 0.9,-2 2,-2s2,0.9 2,2c0,0.55 -0.22,1.05 -0.59,1.41z"/>
     </g>
     <g id="svg_26">
      <path id="svg_27" data-original="#ff826e" fill="#ff826e" d="m44.41,19.59c0.37,0.36 0.59,0.86 0.59,1.41c0,1.1 -0.9,2 -2,2s-2,-0.9 -2,-2c0,-0.55 0.22,-1.05 0.59,-1.41c0.36,-0.37 0.86,-0.59 1.41,-0.59s1.05,0.22 1.41,0.59z"/>
     </g>
     <g id="svg_28">
      <path id="svg_29" data-original="#ff826e" fill="#ff826e" d="m56,2c3.31,0 6,2.69 6,6s-2.69,6 -6,6c-1.66,0 -3.16,-0.67 -4.24,-1.76c-0.86,-0.86 -1.46,-1.98 -1.67,-3.24c-0.06,-0.32 -0.09,-0.66 -0.09,-1c0,-3.31 2.69,-6 6,-6z"/>
     </g>
    </g>
    <g id="svg_30">
     <path id="svg_31" data-original="#000000" fill="#000000" d="m57,34.53l0,-19.61c3.387,-0.488 6,-3.401 6,-6.92c0,-3.859 -3.14,-7 -7,-7s-7,3.141 -7,7l-48,0l0,40l30.051,0c0.52,8.356 7.465,15 15.949,15c8.822,0 16,-7.178 16,-16c0,-5.039 -2.347,-9.535 -6,-12.47zm-1,-31.53c2.757,0 5,2.243 5,5s-2.243,5 -5,5s-5,-2.243 -5,-5s2.243,-5 5,-5zm-53,7l46.295,0c0.239,0.798 0.619,1.533 1.107,2.185l-6.116,6.116c-0.392,-0.188 -0.824,-0.301 -1.286,-0.301s-0.894,0.113 -1.285,0.301l-2.015,-2.015c0.187,-0.392 0.3,-0.824 0.3,-1.286c0,-1.654 -1.346,-3 -3,-3s-3,1.346 -3,3c0,0.462 0.113,0.894 0.301,1.285l-5.015,5.015c-0.392,-0.187 -0.824,-0.3 -1.286,-0.3c-1.654,0 -3,1.346 -3,3s1.346,3 3,3s3,-1.346 3,-3c0,-0.462 -0.113,-0.894 -0.301,-1.285l5.015,-5.015c0.392,0.187 0.824,0.3 1.286,0.3s0.894,-0.113 1.285,-0.301l2.015,2.015c-0.187,0.392 -0.3,0.824 -0.3,1.286c0,1.654 1.346,3 3,3s3,-1.346 3,-3c0,-0.462 -0.113,-0.894 -0.301,-1.285l6.117,-6.116c0.915,0.686 2.001,1.151 3.184,1.322l0,18.245c-2.357,-1.369 -5.084,-2.166 -8,-2.166c-4.78,0 -9.066,2.118 -12,5.453l0,-4.453l-6,0l0,12l2.292,0c-0.124,0.653 -0.199,1.322 -0.241,2l-28.051,0l0,-36zm40,10c0.551,0 1,0.448 1,1s-0.449,1 -1,1s-1,-0.448 -1,-1s0.449,-1 1,-1zm-7,-5c0,-0.552 0.449,-1 1,-1s1,0.448 1,1s-0.449,1 -1,1s-1,-0.448 -1,-1zm-7,9c0,0.552 -0.449,1 -1,1s-1,-0.448 -1,-1s0.449,-1 1,-1s1,0.448 1,1zm18,31c-4.411,0 -8,-3.589 -8,-8s3.589,-8 8,-8s8,3.589 8,8s-3.589,8 -8,8zm-14,-15.729c-0.479,0.864 -0.875,1.777 -1.189,2.729l-0.811,0l0,-8l2,0l0,5.271zm13,-6.22l0,4c-5.046,0.504 -9,4.773 -9,9.949c0,1.463 0.324,2.85 0.891,4.104l-3.469,2.003c-0.902,-1.848 -1.422,-3.916 -1.422,-6.107c0,-7.382 5.747,-13.433 13,-13.949zm1,27.949c-4.814,0 -9.068,-2.443 -11.588,-6.155l3.483,-2.011c1.818,2.518 4.769,4.166 8.105,4.166s6.287,-1.648 8.105,-4.166l3.483,2.011c-2.52,3.712 -6.774,6.155 -11.588,6.155zm12.578,-7.893l-3.469,-2.003c0.567,-1.254 0.891,-2.641 0.891,-4.104c0,-5.176 -3.954,-9.446 -9,-9.949l0,-4c7.253,0.516 13,6.567 13,13.949c0,2.191 -0.52,4.259 -1.422,6.107z"/>
     <path id="svg_32" data-original="#000000" fill="#000000" d="m47,41c-3.309,0 -6,2.691 -6,6s2.691,6 6,6s6,-2.691 6,-6s-2.691,-6 -6,-6zm0,10c-2.206,0 -4,-1.794 -4,-4s1.794,-4 4,-4s4,1.794 4,4s-1.794,4 -4,4z"/>
     <path id="svg_33" data-original="#000000" fill="#000000" d="m5,12l2,0l0,2l-2,0l0,-2z"/>
     <path id="svg_34" data-original="#000000" fill="#000000" d="m9,12l14,0l0,2l-14,0l0,-2z"/>
     <path id="svg_35" data-original="#000000" fill="#000000" d="m5,16l2,0l0,2l-2,0l0,-2z"/>
     <path id="svg_36" data-original="#000000" fill="#000000" d="m9,16l14,0l0,2l-14,0l0,-2z"/>
     <path id="svg_37" data-original="#000000" fill="#000000" d="m5,20l2,0l0,2l-2,0l0,-2z"/>
     <path id="svg_38" data-original="#000000" fill="#000000" d="m9,20l14,0l0,2l-14,0l0,-2z"/>
     <path id="svg_39" data-original="#000000" fill="#000000" d="m5,24l2,0l0,2l-2,0l0,-2z"/>
     <path id="svg_40" data-original="#000000" fill="#000000" d="m9,24l14,0l0,2l-14,0l0,-2z"/>
     <path id="svg_41" data-original="#000000" fill="#000000" d="m5,44l6,0l0,-10l-6,0l0,10zm2,-8l2,0l0,6l-2,0l0,-6z"/>
     <path id="svg_42" data-original="#000000" fill="#000000" d="m13,44l6,0l0,-8l-6,0l0,8zm2,-6l2,0l0,4l-2,0l0,-4z"/>
     <path id="svg_43" data-original="#000000" fill="#000000" d="m21,44l6,0l0,-16l-6,0l0,16zm2,-14l2,0l0,12l-2,0l0,-12z"/>
    </g>
   </g>
  </g>
 </g>
</svg>