<svg width="64" height="64" xmlns="http://www.w3.org/2000/svg" xml:space="preserve" version="1.1">

 <g>
  <title>Layer 1</title>
  <g id="svg_1">
   <path id="svg_2" data-original="#e0e0e0" fill="#e0e0e0" d="m2,2l44,0l0,58l-44,0l0,-58z" xmlns="http://www.w3.org/2000/svg"/>
   <path id="svg_3" data-original="#f7c244" fill="#f7c244" d="m6,26l36,0l0,28l-36,0l0,-28z" xmlns="http://www.w3.org/2000/svg"/>
   <path id="svg_4" data-original="#f5f5f5" fill="#f5f5f5" d="m6,34l36,0l0,20l-36,0l0,-20z" xmlns="http://www.w3.org/2000/svg"/>
   <path id="svg_5" data-original="#f7c244" fill="#f7c244" d="m6,6l36,0l0,16l-36,0l0,-16z" xmlns="http://www.w3.org/2000/svg"/>
   <path id="svg_6" data-original="#f9ce69" fill="#f9ce69" d="m6,6l0,11l27,0a3,3 0 0 0 3,-3l0,-8l-30,0z" xmlns="http://www.w3.org/2000/svg"/>
   <path id="svg_7" data-original="#594139" fill="#594139" d="m59,56a3,3 0 0 1 3,3a3,3 0 0 1 -3,3l-18,0a3,3 0 0 1 -3,-3a3,3 0 0 1 3,-3l0,-9a9,9 0 0 1 9,-9a9,9 0 0 1 9,9l0,9z" xmlns="http://www.w3.org/2000/svg"/>
   <path id="svg_8" data-original="#594139" fill="#594139" d="m50,38a8.938,8.938 0 0 1 4,0.947l0,-1.947a2,2 0 0 0 -2,-2l-4,0a2,2 0 0 0 -2,2l0,1.947a8.938,8.938 0 0 1 4,-0.947z" xmlns="http://www.w3.org/2000/svg"/>
   <path id="svg_9" data-original="#74574a" fill="#74574a" d="m48,35l4,0a1.979,1.979 0 0 1 0.931,0.24l2.069,-7.24l-3,0l-2,2l-2,-2l-3,0l2.069,7.24a1.979,1.979 0 0 1 0.931,-0.24z" xmlns="http://www.w3.org/2000/svg"/>
   <path id="svg_10" data-original="#74574a" fill="#74574a" d="m53,58a3,3 0 0 0 3,-3l0,-14.695a8.989,8.989 0 0 0 -15,6.695l0,9a2.99,2.99 0 0 0 -2.816,2l14.816,0z" xmlns="http://www.w3.org/2000/svg"/>
   <circle id="svg_11" data-original="#b3bec4" r="2" fill="#b3bec4" cy="48" cx="36" xmlns="http://www.w3.org/2000/svg"/>
   <circle id="svg_12" data-original="#b3bec4" r="2" fill="#b3bec4" cy="40" cx="29" xmlns="http://www.w3.org/2000/svg"/>
   <path id="svg_13" data-original="#f9ce69" fill="#f9ce69" d="m6,26l0,4l27,0a3,3 0 0 0 3,-3l0,-1l-30,0z" xmlns="http://www.w3.org/2000/svg"/>
   <path id="svg_14" data-original="#000000" fill="#000000" d="m43,6a1,1 0 0 0 -1,-1l-36,0a1,1 0 0 0 -1,1l0,16a1,1 0 0 0 1,1l36,0a1,1 0 0 0 1,-1l0,-16zm-2,15l-34,0l0,-14l34,0l0,14z" xmlns="http://www.w3.org/2000/svg"/>
   <path id="svg_15" data-original="#000000" fill="#000000" d="m16,18l2,0l0,-6l2,0l0,-2l-6,0l0,2l2,0l0,6z" xmlns="http://www.w3.org/2000/svg"/>
   <path id="svg_16" data-original="#000000" fill="#000000" d="m23,16l2,0l0,2l2,0l0,-5a3,3 0 0 0 -6,0l0,5l2,0l0,-2zm1,-4a1,1 0 0 1 1,1l0,1l-2,0l0,-1a1,1 0 0 1 1,-1z" xmlns="http://www.w3.org/2000/svg"/>
   <path id="svg_17" data-original="#000000" fill="#000000" d="m30,18a3.8,3.8 0 0 1 1,-2.56a3.8,3.8 0 0 1 1,2.56l2,0a5.784,5.784 0 0 0 -1.6,-4a5.784,5.784 0 0 0 1.6,-4l-2,0a3.8,3.8 0 0 1 -1,2.56a3.8,3.8 0 0 1 -1,-2.56l-2,0a5.784,5.784 0 0 0 1.6,4a5.784,5.784 0 0 0 -1.6,4l2,0z" xmlns="http://www.w3.org/2000/svg"/>
   <path id="svg_18" data-original="#000000" fill="#000000" d="m43,39l0,-13a1,1 0 0 0 -1,-1l-36,0a1,1 0 0 0 -1,1l0,28a1,1 0 0 0 1,1l32,0l0,-2l-13,0l0,-18l16,0l0,4l2,0zm-20,14l-16,0l0,-18l16,0l0,18zm-16,-20l0,-6l34,0l0,6l-34,0z" xmlns="http://www.w3.org/2000/svg"/>
   <path id="svg_19" data-original="#000000" fill="#000000" d="m9,37l12,0l0,2l-12,0l0,-2z" xmlns="http://www.w3.org/2000/svg"/>
   <path id="svg_20" data-original="#000000" fill="#000000" d="m9,41l12,0l0,2l-12,0l0,-2z" xmlns="http://www.w3.org/2000/svg"/>
   <path id="svg_21" data-original="#000000" fill="#000000" d="m9,45l12,0l0,2l-12,0l0,-2z" xmlns="http://www.w3.org/2000/svg"/>
   <path id="svg_22" data-original="#000000" fill="#000000" d="m9,49l12,0l0,2l-12,0l0,-2z" xmlns="http://www.w3.org/2000/svg"/>
   <path id="svg_23" data-original="#000000" fill="#000000" d="m36,51a3,3 0 1 0 -3,-3a3,3 0 0 0 3,3zm0,-4a1,1 0 1 1 -1,1a1,1 0 0 1 1,-1z" xmlns="http://www.w3.org/2000/svg"/>
   <path id="svg_24" data-original="#000000" fill="#000000" d="m32,40a3,3 0 1 0 -3,3a3,3 0 0 0 3,-3zm-3,1a1,1 0 1 1 1,-1a1,1 0 0 1 -1,1z" xmlns="http://www.w3.org/2000/svg"/>
   <path id="svg_25" data-original="#000000" fill="#000000" d="m28.08228,50.55344l6.99644,-13.99289l1.788,0.894l-6.99644,13.99289l-1.788,-0.894z" xmlns="http://www.w3.org/2000/svg"/>
   <path id="svg_26" data-original="#000000" fill="#000000" d="m60,55.127l0,-8.127a10,10 0 0 0 -5,-8.647l0,-1.353a2.986,2.986 0 0 0 -0.917,-2.151l1.879,-6.574a1,1 0 0 0 -0.962,-1.275l-3,0a1,1 0 0 0 -0.707,0.293l-1.293,1.293l-1.293,-1.293a1,1 0 0 0 -0.707,-0.293l-3,0a1,1 0 0 0 -0.962,1.275l1.879,6.574a2.986,2.986 0 0 0 -0.917,2.151l0,1.353a10,10 0 0 0 -5,8.647l0,8.127a4.005,4.005 0 0 0 -3,3.873l-34,0l0,-56l42,0l0,22l2,0l0,-23a1,1 0 0 0 -1,-1l-44,0a1,1 0 0 0 -1,1l0,58a1,1 0 0 0 1,1l35.556,0a3.987,3.987 0 0 0 3.444,2l18,0a4,4 0 0 0 1,-7.873zm-13.674,-26.127l1.26,0l1.707,1.707a1,1 0 0 0 1.414,0l1.707,-1.707l1.26,0l-1.436,5.024c-0.08,-0.006 -0.156,-0.024 -0.238,-0.024l-4,0c-0.082,0 -0.158,0.018 -0.238,0.024l-1.436,-5.024zm0.674,8a1,1 0 0 1 1,-1l4,0a1,1 0 0 1 1,1l0,0.461a9.992,9.992 0 0 0 -6,0l0,-0.461zm12,24l-18,0a2,2 0 0 1 0,-4a1,1 0 0 0 1,-1l0,-9a8,8 0 0 1 16,0l0,9a1,1 0 0 0 1,1a2,2 0 0 1 0,4z" xmlns="http://www.w3.org/2000/svg"/>
   <path id="svg_27" data-original="#000000" fill="#000000" d="m50,47a1,1 0 0 1 1,1l2,0a3,3 0 0 0 -2,-2.816l0,-1.184l-2,0l0,1.184a2.993,2.993 0 0 0 1,5.816a1,1 0 1 1 -1,1l-2,0a3,3 0 0 0 2,2.816l0,1.184l2,0l0,-1.184a2.993,2.993 0 0 0 -1,-5.816a1,1 0 0 1 0,-2z" xmlns="http://www.w3.org/2000/svg"/>
  </g>
 </g>
</svg>